# xmcd CD database file
#
# Track frame offsets:
#	150
#	35477
#	80686
#	120431
#	155669
#	207591
#	238816
#
# Disc length: 3771 seconds
#
# Revision: 0
# Processed by: cddbd v1.5.2PL0 Copyright (c) Steve Scherf et al.
# Submitted via: CDex 1.78
#
DISCID=5d0eb907
DTITLE=Manish Vyas - Shivoham
DYEAR=2014
DGENRE=India devotional
TTITLE0=Narayana Vidmahe
TTITLE1=Shivoham
TTITLE2=Guru Brahma
TTITLE3=Jaya Shiva Omkara
TTITLE4=Jai Radha Madhav
TTITLE5=Sohum
TTITLE6=In Search
EXTD=YEAR: 2014
EXTT0=
EXTT1=
EXTT2=
EXTT3=
EXTT4=
EXTT5=
EXTT6=
PLAYORDER=
